<svg width="32" height="32" viewBox="0 0 32 32" fill="none" xmlns="http://www.w3.org/2000/svg">
<path d="M15.9998 29.3333C14.3331 29.3333 12.7722 29.0169 11.3171 28.384C9.86203 27.7511 8.59536 26.8956 7.51714 25.8173C6.43892 24.7391 5.58336 23.4724 4.95047 22.0173C4.31758 20.5622 4.00069 19.0009 3.9998 17.3333C3.99892 15.6658 4.3158 14.1049 4.95047 12.6507C5.58514 11.1964 6.44025 9.92978 7.51581 8.85066C8.59136 7.77155 9.85803 6.916 11.3158 6.284C12.7736 5.652 14.3349 5.33511 15.9998 5.33333C17.6647 5.33155 19.226 5.64844 20.6838 6.284C22.1416 6.91955 23.4083 7.77511 24.4838 8.85066C25.5594 9.92622 26.4149 11.1929 27.0505 12.6507C27.686 14.1084 28.0025 15.6693 27.9998 17.3333C27.9971 18.9973 27.6807 20.5587 27.0505 22.0173C26.4202 23.476 25.5647 24.7427 24.4838 25.8173C23.4029 26.892 22.1362 27.7476 20.6838 28.384C19.2314 29.0204 17.67 29.3369 15.9998 29.3333ZM19.7331 22.9333L21.5998 21.0667L17.3331 16.8V10.6667H14.6665V17.8667L19.7331 22.9333ZM7.46647 3.13333L9.33314 5L3.66647 10.6667L1.7998 8.8L7.46647 3.13333ZM24.5331 3.13333L30.1998 8.8L28.3331 10.6667L22.6665 5L24.5331 3.13333Z" fill="#DB4453"/>
</svg>
