<svg width="158" height="158" viewBox="0 0 158 158" fill="none" xmlns="http://www.w3.org/2000/svg">
<path fill-rule="evenodd" clip-rule="evenodd" d="M79 138.25C86.7808 138.25 94.4855 136.717 101.674 133.74C108.863 130.762 115.394 126.398 120.896 120.896C126.398 115.394 130.762 108.863 133.74 101.674C136.717 94.4855 138.25 86.7808 138.25 79C138.25 71.2192 136.717 63.5145 133.74 56.326C130.762 49.1375 126.398 42.6058 120.896 37.1039C115.394 31.6021 108.863 27.2377 101.674 24.2601C94.4855 21.2825 86.7808 19.75 79 19.75C63.2859 19.75 48.2155 25.9924 37.1039 37.1039C25.9924 48.2155 19.75 63.2859 19.75 79C19.75 94.7141 25.9924 109.785 37.1039 120.896C48.2155 132.008 63.2859 138.25 79 138.25ZM77.4727 102.963L110.389 63.4633L100.277 55.0367L71.969 89.0001L57.3211 74.3456L48.0123 83.6544L67.7623 103.404L72.8578 108.5L77.4727 102.963Z" fill="white"/>
</svg>
