<svg width="158" height="158" viewBox="0 0 158 158" fill="none" xmlns="http://www.w3.org/2000/svg">
<path d="M78.9 137.9C71.4 137.9 64.376 136.476 57.828 133.628C51.28 130.78 45.58 126.93 40.728 122.078C35.876 117.226 32.026 111.526 29.178 104.978C26.33 98.43 24.904 91.404 24.9 83.9C24.896 76.396 26.322 69.372 29.178 62.828C32.034 56.284 35.882 50.584 40.722 45.728C45.562 40.872 51.262 37.022 57.822 34.178C64.382 31.334 71.408 29.908 78.9 29.9C86.392 29.892 93.418 31.318 99.978 34.178C106.538 37.038 112.238 40.888 117.078 45.728C121.918 50.568 125.768 56.268 128.628 62.828C131.488 69.388 132.912 76.412 132.9 83.9C132.888 91.388 131.464 98.414 128.628 104.978C125.792 111.542 121.942 117.242 117.078 122.078C112.214 126.914 106.514 130.764 99.978 133.628C93.442 136.492 86.416 137.916 78.9 137.9ZM95.7 109.1L104.1 100.7L84.9 81.5V53.9H72.9V86.3L95.7 109.1ZM40.5 20L48.9 28.4L23.4 53.9L15 45.5L40.5 20ZM117.3 20L142.8 45.5L134.4 53.9L108.9 28.4L117.3 20Z" fill="white"/>
</svg>
