<svg width="246" height="246" viewBox="0 0 246 246" fill="none" xmlns="http://www.w3.org/2000/svg">
<rect x="73" y="73" width="100" height="100" fill="white"/>
<path fill-rule="evenodd" clip-rule="evenodd" d="M123 215.25C135.114 215.25 147.11 212.864 158.303 208.228C169.495 203.592 179.664 196.797 188.231 188.231C196.797 179.664 203.592 169.495 208.228 158.303C212.864 147.11 215.25 135.114 215.25 123C215.25 110.886 212.864 98.8897 208.228 87.6975C203.592 76.5052 196.797 66.3356 188.231 57.7694C179.664 49.2032 169.495 42.4081 158.303 37.7721C147.11 33.1361 135.114 30.75 123 30.75C98.5338 30.75 75.0696 40.4692 57.7694 57.7694C40.4692 75.0696 30.75 98.5338 30.75 123C30.75 147.466 40.4692 170.93 57.7694 188.231C75.0696 205.531 98.5338 215.25 123 215.25ZM120.622 160.31L171.872 98.81L156.128 85.69L112.053 138.57L89.2467 115.753L74.7533 130.247L105.503 160.997L113.437 168.93L120.622 160.31Z" fill="#2F69FF"/>
</svg>
