<svg width="24" height="24" viewBox="0 0 24 24" fill="none" xmlns="http://www.w3.org/2000/svg">
<path d="M6 22C5.45 22 4.97933 21.8043 4.588 21.413C4.19667 21.0217 4.00067 20.5507 4 20V4C4 3.45 4.196 2.97933 4.588 2.588C4.98 2.19667 5.45067 2.00067 6 2H14L20 8V11C19.6167 11.0833 19.2583 11.2167 18.925 11.4C18.5917 11.5833 18.2833 11.8167 18 12.1L12 18.075V22H6ZM14 22V18.925L19.525 13.425C19.675 13.275 19.8417 13.1667 20.025 13.1C20.2083 13.0333 20.3917 13 20.575 13C20.775 13 20.9667 13.0377 21.15 13.113C21.3333 13.1883 21.5 13.3007 21.65 13.45L22.575 14.375C22.7083 14.525 22.8127 14.6917 22.888 14.875C22.9633 15.0583 23.0007 15.2417 23 15.425C22.9993 15.6083 22.966 15.796 22.9 15.988C22.834 16.18 22.7257 16.3507 22.575 16.5L17.075 22H14ZM20.575 16.4L21.5 15.425L20.575 14.5L19.625 15.45L20.575 16.4ZM13 9H18L13 4V9Z" fill="#444444"/>
</svg>
