<svg width="16" height="16" viewBox="0 0 16 16" fill="none" xmlns="http://www.w3.org/2000/svg">
<path d="M7.3335 11.3333H8.66683V7.33331H7.3335V11.3333ZM8.00016 5.99998C8.18905 5.99998 8.3475 5.93598 8.4755 5.80798C8.6035 5.67998 8.66727 5.52176 8.66683 5.33331C8.66639 5.14487 8.60239 4.98665 8.47483 4.85865C8.34727 4.73065 8.18905 4.66665 8.00016 4.66665C7.81127 4.66665 7.65305 4.73065 7.5255 4.85865C7.39794 4.98665 7.33394 5.14487 7.3335 5.33331C7.33305 5.52176 7.39705 5.6802 7.5255 5.80865C7.65394 5.93709 7.81216 6.00087 8.00016 5.99998ZM8.00016 14.6666C7.07794 14.6666 6.21127 14.4915 5.40016 14.1413C4.58905 13.7911 3.8835 13.3162 3.2835 12.7166C2.6835 12.1171 2.20861 11.4115 1.85883 10.6C1.50905 9.78842 1.33394 8.92176 1.3335 7.99998C1.33305 7.0782 1.50816 6.21154 1.85883 5.39998C2.2095 4.58842 2.68439 3.88287 3.2835 3.28331C3.88261 2.68376 4.58816 2.20887 5.40016 1.85865C6.21216 1.50842 7.07883 1.33331 8.00016 1.33331C8.9215 1.33331 9.78816 1.50842 10.6002 1.85865C11.4122 2.20887 12.1177 2.68376 12.7168 3.28331C13.3159 3.88287 13.7911 4.58842 14.1422 5.39998C14.4933 6.21154 14.6682 7.0782 14.6668 7.99998C14.6655 8.92176 14.4904 9.78842 14.1415 10.6C13.7926 11.4115 13.3177 12.1171 12.7168 12.7166C12.1159 13.3162 11.4104 13.7913 10.6002 14.142C9.78994 14.4926 8.92327 14.6675 8.00016 14.6666Z" fill="#2F69FF"/>
</svg>
