<svg width="20" height="20" viewBox="0 0 20 20" fill="none" xmlns="http://www.w3.org/2000/svg">
<path d="M14.1668 7.50002V5.83335C14.1668 3.50002 12.3335 1.66669 10.0002 1.66669C7.66683 1.66669 5.8335 3.50002 5.8335 5.83335V7.50002C4.41683 7.50002 3.3335 8.58335 3.3335 10V15.8334C3.3335 17.25 4.41683 18.3334 5.8335 18.3334H14.1668C15.5835 18.3334 16.6668 17.25 16.6668 15.8334V10C16.6668 8.58335 15.5835 7.50002 14.1668 7.50002ZM7.50016 5.83335C7.50016 4.41669 8.5835 3.33335 10.0002 3.33335C11.4168 3.33335 12.5002 4.41669 12.5002 5.83335V7.50002H7.50016V5.83335Z" fill="#444444"/>
</svg>
