<svg width="34" height="34" viewBox="0 0 34 34" fill="none" xmlns="http://www.w3.org/2000/svg">
<path d="M17.0003 5.6665C18.5032 5.6665 19.9446 6.26353 21.0073 7.32623C22.07 8.38894 22.667 9.83028 22.667 11.3332C22.667 12.8361 22.07 14.2774 21.0073 15.3401C19.9446 16.4028 18.5032 16.9998 17.0003 16.9998C15.4974 16.9998 14.0561 16.4028 12.9934 15.3401C11.9307 14.2774 11.3337 12.8361 11.3337 11.3332C11.3337 9.83028 11.9307 8.38894 12.9934 7.32623C14.0561 6.26353 15.4974 5.6665 17.0003 5.6665ZM17.0003 19.8332C23.262 19.8332 28.3337 22.369 28.3337 25.4998V28.3332H5.66699V25.4998C5.66699 22.369 10.7387 19.8332 17.0003 19.8332Z" fill="#444444"/>
</svg>
