<svg width="220" height="220" viewBox="0 0 220 220" fill="none" xmlns="http://www.w3.org/2000/svg">
<path d="M146.666 155.833V174.167H18.333V155.833C18.333 155.833 18.333 119.167 82.4997 119.167C146.666 119.167 146.666 155.833 146.666 155.833ZM114.583 68.75C114.583 62.4045 112.701 56.2015 109.176 50.9254C105.651 45.6494 100.64 41.5372 94.7774 39.1089C88.915 36.6805 82.4641 36.0452 76.2405 37.2831C70.017 38.5211 64.3003 41.5767 59.8133 46.0637C55.3264 50.5506 52.2708 56.2673 51.0328 62.4908C49.7949 68.7144 50.4302 75.1653 52.8585 81.0277C55.2868 86.8902 59.3991 91.9009 64.6751 95.4263C69.9512 98.9517 76.1542 100.833 82.4997 100.833C91.0087 100.833 99.1692 97.4531 105.186 91.4363C111.203 85.4195 114.583 77.259 114.583 68.75ZM146.116 119.167C151.752 123.528 156.363 129.071 159.625 135.405C162.887 141.74 164.722 148.713 165 155.833V174.167H201.666V155.833C201.666 155.833 201.666 122.558 146.116 119.167ZM137.5 36.6667C131.191 36.6373 125.022 38.5232 119.808 42.075C125.376 49.8551 128.37 59.1826 128.37 68.75C128.37 78.3174 125.376 87.6449 119.808 95.425C125.022 98.9768 131.191 100.863 137.5 100.833C146.009 100.833 154.169 97.4531 160.186 91.4363C166.203 85.4195 169.583 77.259 169.583 68.75C169.583 60.241 166.203 52.0804 160.186 46.0637C154.169 40.0469 146.009 36.6667 137.5 36.6667Z" fill="white"/>
</svg>
