<svg width="220" height="220" viewBox="0 0 220 220" fill="none" xmlns="http://www.w3.org/2000/svg">
<path d="M110 36.6667C119.725 36.6667 129.051 40.5298 135.928 47.4061C142.804 54.2824 146.667 63.6087 146.667 73.3334C146.667 83.058 142.804 92.3843 135.928 99.2606C129.051 106.137 119.725 110 110 110C100.276 110 90.9494 106.137 84.0731 99.2606C77.1967 92.3843 73.3337 83.058 73.3337 73.3334C73.3337 63.6087 77.1967 54.2824 84.0731 47.4061C90.9494 40.5298 100.276 36.6667 110 36.6667ZM110 128.333C150.517 128.333 183.334 144.742 183.334 165V183.333H36.667V165C36.667 144.742 69.4837 128.333 110 128.333Z" fill="white"/>
</svg>
