<svg width="17" height="22" viewBox="0 0 17 22" fill="none" xmlns="http://www.w3.org/2000/svg">
<path d="M17 0H0V2.1986L6.17313 6.99155C4.29966 7.63071 2.74813 9.01335 1.85955 10.8356C0.970965 12.6578 0.818036 14.7705 1.43437 16.7094C1.7393 17.6698 2.22426 18.5586 2.86151 19.325C3.49875 20.0914 4.27578 20.7202 5.14814 21.1756C6.0205 21.631 6.97108 21.9039 7.94549 21.9788C8.91991 22.0538 9.89904 21.9292 10.8269 21.6122C12.3149 21.1062 13.6105 20.1271 14.529 18.8144C15.4475 17.5017 15.942 15.9225 15.942 14.3019C15.942 12.6813 15.4475 11.1021 14.529 9.78942C13.6105 8.47673 12.3149 7.49757 10.8269 6.99155L17 2.1986V0ZM11.6237 19.2378L8.5 17.347L5.37625 19.2378L6.205 15.5771L3.45312 13.1147L7.07625 12.7959L8.5 9.34405L9.92375 12.7959L13.5469 13.1147L10.795 15.5771L11.6237 19.2378Z" fill="#F6C401"/>
</svg>
