<svg width="40" height="40" viewBox="0 0 40 40" fill="none" xmlns="http://www.w3.org/2000/svg">
<path d="M20 3.33334L21.07 3.34168L22.0966 3.37001L22.595 3.39168L23.56 3.44834L24.4816 3.52501C32.2933 4.28334 35.565 7.41334 36.425 15.035L36.475 15.5183L36.5516 16.44L36.62 17.6517L36.63 17.9017L36.6583 18.93L36.6666 20L36.6583 21.07L36.63 22.0967L36.6083 22.595L36.5516 23.56L36.475 24.4817C35.7166 32.2933 32.5866 35.565 24.965 36.425L24.4816 36.475L23.56 36.5517L22.3483 36.62L22.0983 36.63L21.07 36.6583L20 36.6667L18.93 36.6583L17.9033 36.63L17.405 36.6083L16.44 36.5517L15.5183 36.475C7.70663 35.7167 4.43496 32.5867 3.57496 24.965L3.52496 24.4817L3.44829 23.56L3.37996 22.3483L3.36996 22.0983L3.34163 21.07L3.33496 20.54V19.46L3.34163 18.93L3.36996 17.9033L3.39163 17.405L3.44829 16.44L3.52496 15.5183C4.28329 7.70668 7.41329 4.43501 15.035 3.57501L15.5183 3.52501L16.44 3.44834L17.6516 3.38001L17.9016 3.37001L18.93 3.34168C19.28 3.33612 19.6366 3.33334 20 3.33334ZM21.6666 11.6667H16.6666L16.4716 11.6783C16.0665 11.7265 15.6932 11.9216 15.4223 12.2266C15.1514 12.5316 15.0018 12.9254 15.0018 13.3333C15.0018 13.7413 15.1514 14.1351 15.4223 14.4401C15.6932 14.7451 16.0665 14.9402 16.4716 14.9883L16.6666 15H21.6666V18.3333H18.3333L18.0833 18.3417C17.2897 18.4013 16.5436 18.7429 15.9799 19.3048C15.4162 19.8666 15.0722 20.6116 15.01 21.405L15 21.6667V25L15.0083 25.25C15.0679 26.0436 15.4096 26.7897 15.9714 27.3534C16.5332 27.9171 17.2782 28.2611 18.0716 28.3233L18.3333 28.3333H23.3333L23.5283 28.3217C23.9334 28.2735 24.3067 28.0784 24.5776 27.7734C24.8485 27.4684 24.9981 27.0746 24.9981 26.6667C24.9981 26.2587 24.8485 25.865 24.5776 25.56C24.3067 25.2549 23.9334 25.0599 23.5283 25.0117L23.3333 25H18.3333V21.6667H21.6666L21.9166 21.6583C22.7102 21.5987 23.4563 21.2571 24.02 20.6952C24.5837 20.1334 24.9277 19.3884 24.99 18.595L25 18.3333V15L24.9916 14.75C24.932 13.9564 24.5904 13.2103 24.0285 12.6466C23.4667 12.083 22.7217 11.7389 21.9283 11.6767L21.6666 11.6667Z" fill="#444444"/>
</svg>
