<svg width="40" height="40" viewBox="0 0 40 40" fill="none" xmlns="http://www.w3.org/2000/svg">
<path d="M20 3.33334L21.07 3.34168L22.0966 3.37001L22.595 3.39168L23.56 3.44834L24.4816 3.52501C32.2933 4.28334 35.565 7.41334 36.425 15.035L36.475 15.5183L36.5516 16.44L36.62 17.6517L36.63 17.9017L36.6583 18.93L36.6666 20L36.6583 21.07L36.63 22.0967L36.6083 22.595L36.5516 23.56L36.475 24.4817C35.7166 32.2933 32.5866 35.565 24.965 36.425L24.4816 36.475L23.56 36.5517L22.3483 36.62L22.0983 36.63L21.07 36.6583L20 36.6667L18.93 36.6583L17.9033 36.63L17.405 36.6083L16.44 36.5517L15.5183 36.475C7.70663 35.7167 4.43496 32.5867 3.57496 24.965L3.52496 24.4817L3.44829 23.56L3.37996 22.3483L3.36996 22.0983L3.34163 21.07L3.33496 20.54V19.46L3.34163 18.93L3.36996 17.9033L3.39163 17.405L3.44829 16.44L3.52496 15.5183C4.28329 7.70668 7.41329 4.43501 15.035 3.57501L15.5183 3.52501L16.44 3.44834L17.6516 3.38001L17.9016 3.37001L18.93 3.34168C19.28 3.33612 19.6366 3.33334 20 3.33334ZM23.3333 11.6667C22.9251 11.6667 22.5311 11.8166 22.226 12.0879C21.9209 12.3591 21.7261 12.7329 21.6783 13.1383L21.6666 13.3333V18.3333H18.3333V13.3333L18.3216 13.1383C18.2734 12.7333 18.0784 12.3599 17.7734 12.089C17.4683 11.8181 17.0746 11.6685 16.6666 11.6685C16.2587 11.6685 15.8649 11.8181 15.5599 12.089C15.2549 12.3599 15.0598 12.7333 15.0116 13.1383L15 13.3333V18.3333L15.0083 18.5833C15.0679 19.377 15.4096 20.1231 15.9714 20.6867C16.5332 21.2504 17.2782 21.5945 18.0716 21.6567L18.3333 21.6667H21.6666V26.6667L21.6783 26.8617C21.7265 27.2668 21.9216 27.6401 22.2266 27.911C22.5316 28.1819 22.9254 28.3315 23.3333 28.3315C23.7412 28.3315 24.135 28.1819 24.44 27.911C24.745 27.6401 24.9401 27.2668 24.9883 26.8617L25 26.6667V13.3333L24.9883 13.1383C24.9405 12.7329 24.7456 12.3591 24.4406 12.0879C24.1355 11.8166 23.7415 11.6667 23.3333 11.6667Z" fill="#444444"/>
</svg>
