<svg width="40" height="40" viewBox="0 0 40 40" fill="none" xmlns="http://www.w3.org/2000/svg">
<path d="M20 3.33334L21.07 3.34168L22.0966 3.37001L22.595 3.39168L23.56 3.44834L24.4816 3.52501C32.2933 4.28334 35.565 7.41334 36.425 15.035L36.475 15.5183L36.5516 16.44L36.62 17.6517L36.63 17.9017L36.6583 18.93L36.6666 20L36.6583 21.07L36.63 22.0967L36.6083 22.595L36.5516 23.56L36.475 24.4817C35.7166 32.2933 32.5866 35.565 24.965 36.425L24.4816 36.475L23.56 36.5517L22.3483 36.62L22.0983 36.63L21.07 36.6583L20 36.6667L18.93 36.6583L17.9033 36.63L17.405 36.6083L16.44 36.5517L15.5183 36.475C7.70663 35.7167 4.43496 32.5867 3.57496 24.965L3.52496 24.4817L3.44829 23.56L3.37996 22.3483L3.36996 22.0983L3.34163 21.07L3.33496 20.54V19.46L3.34163 18.93L3.36996 17.9033L3.39163 17.405L3.44829 16.44L3.52496 15.5183C4.28329 7.70668 7.41329 4.43501 15.035 3.57501L15.5183 3.52501L16.44 3.44834L17.6516 3.38001L17.9016 3.37001L18.93 3.34168C19.28 3.33612 19.6366 3.33334 20 3.33334ZM21.6666 11.6667H18.3333L18.0833 11.675C17.2447 11.7381 16.4609 12.1158 15.8891 12.7324C15.3173 13.3491 14.9997 14.159 15 15C14.9985 15.4096 15.148 15.8054 15.4199 16.1119C15.6917 16.4183 16.0669 16.6139 16.4737 16.6613C16.8806 16.7087 17.2907 16.6046 17.6257 16.3689C17.9607 16.1332 18.1972 15.7823 18.29 15.3833L18.3233 15.195L18.3333 15H21.6666V18.3333H18.3333L18.1116 18.345C16.26 18.545 16.1883 21.2283 17.8983 21.62L18.1116 21.655L18.3333 21.6667H21.6666V25H18.3333L18.3216 24.805C18.2715 24.3832 18.0621 23.9964 17.7363 23.7238C17.4106 23.4511 16.993 23.3132 16.569 23.3381C16.1449 23.363 15.7463 23.5488 15.4547 23.8577C15.1631 24.1666 15.0004 24.5752 15 25C14.9997 25.841 15.3173 26.651 15.8891 27.2676C16.4609 27.8842 17.2447 28.2619 18.0833 28.325L18.3333 28.3333H21.6666L21.9166 28.325C22.7102 28.2654 23.4563 27.9237 24.02 27.3619C24.5837 26.8001 24.9277 26.0551 24.99 25.2617L25 25V21.6667L24.9916 21.4167C24.9621 21.0325 24.8663 20.6564 24.7083 20.305L24.5833 20.0517L24.5516 19.9983L24.585 19.9483C24.8107 19.5398 24.9481 19.0884 24.9883 18.6233L25 18.3333V15L24.9916 14.75C24.932 13.9564 24.5904 13.2103 24.0285 12.6466C23.4667 12.083 22.7217 11.7389 21.9283 11.6767L21.6666 11.6667Z" fill="#444444"/>
</svg>
