<svg width="40" height="40" viewBox="0 0 40 40" fill="none" xmlns="http://www.w3.org/2000/svg">
<path d="M20 3.33334L21.07 3.34168L22.0966 3.37001L22.595 3.39168L23.56 3.44834L24.4816 3.52501C32.2933 4.28334 35.565 7.41334 36.425 15.035L36.475 15.5183L36.5516 16.44L36.62 17.6517L36.63 17.9017L36.6583 18.93L36.6666 20L36.6583 21.07L36.63 22.0967L36.6083 22.595L36.5516 23.56L36.475 24.4817C35.7166 32.2933 32.5866 35.565 24.965 36.425L24.4816 36.475L23.56 36.5517L22.3483 36.62L22.0983 36.63L21.07 36.6583L20 36.6667L18.93 36.6583L17.9033 36.63L17.405 36.6083L16.44 36.5517L15.5183 36.475C7.70663 35.7167 4.43496 32.5867 3.57496 24.965L3.52496 24.4817L3.44829 23.56L3.37996 22.3483L3.36996 22.0983L3.34163 21.07L3.33496 20.54V19.46L3.34163 18.93L3.36996 17.9033L3.39163 17.405L3.44829 16.44L3.52496 15.5183C4.28329 7.70668 7.41329 4.43501 15.035 3.57501L15.5183 3.52501L16.44 3.44834L17.6516 3.38001L17.9016 3.37001L18.93 3.34168C19.28 3.33612 19.6366 3.33334 20 3.33334ZM21.6566 13.1433C21.5183 11.8483 19.9766 11.21 18.9616 12.0267L18.8216 12.155L15.4883 15.4883L15.35 15.645C15.1232 15.9373 15.0001 16.2967 15.0001 16.6667C15.0001 17.0366 15.1232 17.3961 15.35 17.6883L15.4883 17.845L15.645 17.9833C15.9373 18.2101 16.2967 18.3332 16.6666 18.3332C17.0366 18.3332 17.396 18.2101 17.6883 17.9833L17.845 17.845L18.3333 17.3567V26.6667L18.345 26.8617C18.3931 27.2668 18.5882 27.6401 18.8932 27.911C19.1983 28.1819 19.592 28.3315 20 28.3315C20.4079 28.3315 20.8017 28.1819 21.1067 27.911C21.4117 27.6401 21.6068 27.2668 21.655 26.8617L21.6666 26.6667V13.3333L21.6566 13.1433Z" fill="#444444"/>
</svg>
