<svg width="158" height="158" viewBox="0 0 158 158" fill="none" xmlns="http://www.w3.org/2000/svg">
<path fill-rule="evenodd" clip-rule="evenodd" d="M125.164 28.3068C121.765 24.9088 117.155 23 112.349 23C107.543 23 102.934 24.9088 99.5348 28.3068L95.2634 32.5843L125.17 62.4905L129.435 58.219C131.118 56.5359 132.454 54.5377 133.365 52.3385C134.276 50.1393 134.745 47.7821 134.745 45.4017C134.745 43.0212 134.276 40.664 133.365 38.4648C132.454 36.2656 131.118 34.2674 129.435 32.5843L125.164 28.3068ZM116.621 71.0334L86.7144 41.1272L31.7957 96.052C30.5939 97.254 29.7543 98.7697 29.373 100.426L23.1561 127.342C22.9244 128.341 22.951 129.383 23.2333 130.369C23.5156 131.355 24.0443 132.253 24.7696 132.978C25.4949 133.704 26.3929 134.232 27.379 134.515C28.3651 134.797 29.4069 134.823 30.4061 134.592L57.3277 128.381C58.982 127.998 60.4955 127.159 61.6959 125.958L116.621 71.0334Z" fill="white"/>
</svg>
