<svg width="165" height="96" viewBox="0 0 165 96" fill="none" xmlns="http://www.w3.org/2000/svg">
<path d="M0.109493 2.96057L31.8547 90.8968C32.2318 91.9412 32.9217 92.844 33.8305 93.4821C34.7393 94.1202 35.8227 94.4626 36.9331 94.4626H59.8996C61.1483 94.4626 62.2629 93.6793 62.6857 92.5042L94.8911 2.98135C95.342 1.72817 94.3296 0.433792 93.0048 0.569612L67.4467 3.18879C66.6024 3.27528 65.8003 3.60095 65.1347 4.12752C64.4691 4.6541 63.9676 5.35971 63.6892 6.16144L47.6516 52.339L31.505 5.95548C31.2242 5.14893 30.7177 4.43998 30.0457 3.91294C29.3737 3.38589 28.5645 3.06293 27.7142 2.98246L1.98148 0.545491C0.660567 0.420618 -0.341015 1.71277 0.109493 2.96057Z" fill="url(#paint0_linear_498_1168)"/>
<path d="M0.109493 2.96057L31.8547 90.8968C32.2318 91.9412 32.9217 92.844 33.8305 93.4821C34.7393 94.1202 35.8227 94.4626 36.9331 94.4626H59.8996C61.1483 94.4626 62.2629 93.6793 62.6857 92.5042L94.8911 2.98135C95.342 1.72817 94.3296 0.433792 93.0048 0.569612L67.4467 3.18879C66.6024 3.27528 65.8003 3.60095 65.1347 4.12752C64.4691 4.6541 63.9676 5.35971 63.6892 6.16144L47.6516 52.339L31.505 5.95548C31.2242 5.14893 30.7177 4.43998 30.0457 3.91294C29.3737 3.38589 28.5645 3.06293 27.7142 2.98246L1.98148 0.545491C0.660567 0.420618 -0.341015 1.71277 0.109493 2.96057Z" fill="url(#paint1_linear_498_1168)" fill-opacity="0.3"/>
<path d="M123.69 28.687C123.69 24.5486 127.139 22.9544 132.67 22.9544C140.724 22.9544 150.946 25.4214 159 29.7647V4.84795C150.224 1.34186 141.467 0.00592041 132.688 0.00592041C111.221 0.00592041 96.9146 11.213 96.9146 29.9517C96.9146 59.2503 137.141 54.5003 137.141 67.1353C137.141 72.0337 132.893 73.6101 126.991 73.6101C118.233 73.6101 106.913 69.9912 98.0278 65.167V89.009C107.169 92.9533 117.017 94.9986 126.973 95.0208C148.98 95.0208 164.139 85.5564 164.139 66.5208C164.139 34.9422 123.69 40.6006 123.69 28.687Z" fill="url(#paint2_linear_498_1168)"/>
<path d="M123.69 28.687C123.69 24.5486 127.139 22.9544 132.67 22.9544C140.724 22.9544 150.946 25.4214 159 29.7647V4.84795C150.224 1.34186 141.467 0.00592041 132.688 0.00592041C111.221 0.00592041 96.9146 11.213 96.9146 29.9517C96.9146 59.2503 137.141 54.5003 137.141 67.1353C137.141 72.0337 132.893 73.6101 126.991 73.6101C118.233 73.6101 106.913 69.9912 98.0278 65.167V89.009C107.169 92.9533 117.017 94.9986 126.973 95.0208C148.98 95.0208 164.139 85.5564 164.139 66.5208C164.139 34.9422 123.69 40.6006 123.69 28.687Z" fill="url(#paint3_linear_498_1168)" fill-opacity="0.3"/>
<defs>
<linearGradient id="paint0_linear_498_1168" x1="82.0695" y1="0.00592041" x2="82.0695" y2="95.0208" gradientUnits="userSpaceOnUse">
<stop stop-color="white"/>
<stop offset="0.535" stop-color="#CCCCCC"/>
<stop offset="1" stop-color="white"/>
</linearGradient>
<linearGradient id="paint1_linear_498_1168" x1="87.2528" y1="47.0076" x2="-45.2669" y2="100.579" gradientUnits="userSpaceOnUse">
<stop stop-opacity="0"/>
<stop offset="0.62" stop-color="#2F69FF"/>
</linearGradient>
<linearGradient id="paint2_linear_498_1168" x1="130.527" y1="0.00595093" x2="130.527" y2="95.0208" gradientUnits="userSpaceOnUse">
<stop stop-color="white"/>
<stop offset="0.535" stop-color="#CCCCCC"/>
<stop offset="1" stop-color="white"/>
</linearGradient>
<linearGradient id="paint3_linear_498_1168" x1="131" y1="40" x2="207" y2="48" gradientUnits="userSpaceOnUse">
<stop stop-color="#EE5567" stop-opacity="0"/>
<stop offset="0.58" stop-color="#EE5567"/>
</linearGradient>
</defs>
</svg>
